<svg version="1.1" viewBox="0 -10 48 58" preserveAspectRatio="xMidYMid meet" width="100" xmlns="http://www.w3.org/2000/svg"
   xmlns:svg="http://www.w3.org/2000/svg"><path style="fill:#f8981d" d="M 26.397301,0.24913922 A 19.795753,19.795753 0 0 0 9.4968521,29.588427 L 13.269718,27.50284 A 15.535799,15.535799 0 0 1 12.077559,15.335071 14.728561,14.728561 0 0 1 14.874015,10.195786 15.479151,15.479151 0 0 1 28.358417,4.636064 l 0.425968,-4.29564577 a 19.795753,19.795753 0 0 0 -2.387084,-0.091279 z M 28.914389,7.0480428 A 19.883557,19.883557 0 0 0 24.604912,7.4601813 19.685288,19.685288 0 0 0 14.223999,13.296506 l 3.153274,2.951354 a 15.535799,15.535799 0 0 1 11.202426,-4.895874 14.728561,14.728561 0 0 1 5.750577,1.070455 15.479151,15.479151 0 0 1 9.451527,11.10008 L 48,22.598668 A 19.642801,19.642801 0 0 0 39.192959,10.074081 19.883557,19.883557 0 0 0 28.914389,7.0480428 Z M 1.674517,11.736466 a 19.642801,19.642801 0 0 0 -0.2378785,15.309978 19.883557,19.883557 0 0 0 10.2702725,10.69071 19.685288,19.685288 0 0 0 11.827548,1.38025 L 22.71848,34.882611 A 15.535799,15.535799 0 0 1 10.774758,32.260413 14.728561,14.728561 0 0 1 6.7529496,28.01179 15.479151,15.479151 0 0 1 5.6299411,13.468 Z m 29.50525,1.017898 -1.828346,3.902869 a 15.535799,15.535799 0 0 1 8.123833,9.138966 14.728561,14.728561 0 0 1 0.755126,5.805898 15.479151,15.479151 0 0 1 -7.648075,12.425012 l 2.18793,3.728609 A 19.642801,19.642801 0 0 0 41.961755,35.5105 19.883557,19.883557 0 0 0 39.93702,20.825642 19.685288,19.685288 0 0 0 31.179767,12.754364 Z m 1.47153,15.426155 A 15.535799,15.535799 0 0 1 26.469216,38.732925 14.728561,14.728561 0 0 1 21.186098,41.244481 15.479151,15.479151 0 0 1 7.0074243,37.814602 L 4.1390506,41.042561 A 19.642801,19.642801 0 0 0 18.624755,45.999289 19.883557,19.883557 0 0 0 31.96532,39.535075 19.685288,19.685288 0 0 0 36.935877,28.714362 Z" /></svg>
